<svg viewBox="0 0 200 200" xmlns="http://www.w3.org/2000/svg">
  <!-- Inner gradient circle -->
  <defs>
    <linearGradient id="innerGrad" x1="0%" y1="0%" x2="100%" y2="100%">
      <stop offset="0%" style="stop-color:#3b82f6;stop-opacity:1" />
      <stop offset="100%" style="stop-color:#1e40af;stop-opacity:1" />
    </linearGradient>
  </defs>
  
  <circle cx="100" cy="100" r="70" fill="url(#innerGrad)"/>
  
  <!-- Central dashboard icon -->
  <g transform="translate(100, 100)">
    <!-- Main dashboard background -->
    <rect x="-30" y="-25" width="60" height="40" fill="#ffffff" rx="4" opacity="0.95"/>
    
    <!-- Bar chart -->
    <rect x="-24" y="-8" width="8" height="18" fill="#333333" rx="1"/>
    <rect x="-14" y="-15" width="8" height="25" fill="#333333" rx="1"/>
    <rect x="-4" y="-10" width="8" height="20" fill="#333333" rx="1"/>
    <rect x="6" y="-18" width="8" height="28" fill="#333333" rx="1"/>
    <rect x="16" y="-12" width="8" height="22" fill="#333333" rx="1"/>
    
    <!-- Task checkmarks in corners (scaled up 1.5x) -->
    <!-- Top left -->
    <g transform="translate(-50, -50) scale(1.5)">
      <circle cx="0" cy="0" r="12" fill="#ffffff" stroke="#333333" stroke-width="2.5"/>
      <path d="M -5 0 L -2 3 L 5 -4" stroke="#333333" stroke-width="2.5" fill="none" stroke-linecap="round"/>
    </g>
    
    <!-- Top right - document/list -->
    <g transform="translate(50, -50) scale(1.5)">
      <circle cx="0" cy="0" r="12" fill="#ffffff" stroke="#333333" stroke-width="2.5"/>
      <rect x="-4" y="-6" width="8" height="12" fill="none" stroke="#333333" stroke-width="1.8" rx="1"/>
      <line x1="-2" y1="-3" x2="2" y2="-3" stroke="#333333" stroke-width="1.8"/>
      <line x1="-2" y1="0" x2="2" y2="0" stroke="#333333" stroke-width="1.8"/>
      <line x1="-2" y1="3" x2="2" y2="3" stroke="#333333" stroke-width="1.8"/>
    </g>
    
    <!-- Bottom left - clock -->
    <g transform="translate(-50, 50) scale(1.5)">
      <circle cx="0" cy="0" r="12" fill="#ffffff" stroke="#333333" stroke-width="2.5"/>
      <line x1="0" y1="0" x2="0" y2="-6" stroke="#333333" stroke-width="2.5" stroke-linecap="round"/>
      <line x1="0" y1="0" x2="4" y2="3" stroke="#333333" stroke-width="2.5" stroke-linecap="round"/>
    </g>
    
    <!-- Bottom right - gear (settings) -->
    <g transform="translate(50, 50) scale(1.5)">
      <circle cx="0" cy="0" r="12" fill="#ffffff" stroke="#333333" stroke-width="2.5"/>
      <circle cx="0" cy="0" r="4" fill="#333333"/>
      <rect x="-1.5" y="-9" width="3" height="3" fill="#333333" rx="0.5"/>
      <rect x="-1.5" y="6" width="3" height="3" fill="#333333" rx="0.5"/>
      <rect x="6" y="-1.5" width="3" height="3" fill="#333333" rx="0.5"/>
      <rect x="-9" y="-1.5" width="3" height="3" fill="#333333" rx="0.5"/>
    </g>
  </g>
</svg>
